# xmcd CD database file generated by Grip 3.0.3
# 
# Track frame offsets:
#       150
#       15965
#       32140
#       51953
#       69175
#       84115
#       96988
#       109390
#       126263
#       137488
# 
# Disc length: 2088 seconds
# 
# Revision: 4
# Processed by: cddbd v1.4PL0 Copyright (c) Steve Scherf et al.
# Submitted via: Grip 3.0.3
# 
DISCID=7a08260a
DTITLE=Screamin' Jay Hawkins - I Put A Spell On You
DYEAR=1956
DGENRE=Blues
TTITLE0=I Put A Spell On you
TTITLE1=I Don't Know
TTITLE2=Guess Who
TTITLE3=Please Don't Leave Me
TTITLE4=It's Only Make Believe
TTITLE5=We Love
TTITLE6=Ashes
TTITLE7=Don't Deceive Me
TTITLE8=Itty Bitty Pretty One
TTITLE9=Portrait Of A Man
EXTD=
EXTT0=
EXTT1=
EXTT2=
EXTT3=
EXTT4=
EXTT5=
EXTT6=
EXTT7=
EXTT8=
EXTT9=
PLAYORDER=
